<svg xmlns="http://www.w3.org/2000/svg" viewBox="0 0 64 64" role="img" aria-label="LuminOS starfield icon">
  <defs>
    <radialGradient id="bg" cx="0.3" cy="0.2" r="0.9">
      <stop offset="0" stop-color="#1b3b6f"/>
      <stop offset="0.55" stop-color="#0b1528"/>
      <stop offset="1" stop-color="#05070d"/>
    </radialGradient>
    <linearGradient id="glow" x1="0" y1="0" x2="1" y2="1">
      <stop offset="0" stop-color="#7dd3fc" stop-opacity="0.95"/>
      <stop offset="1" stop-color="#22d3ee" stop-opacity="0.2"/>
    </linearGradient>
  </defs>
  <rect width="64" height="64" rx="14" fill="url(#bg)"/>
  <path
    d="M44 14c-8 2-14 8-16 16 4-3 10-5 16-4-4 2-8 6-10 10 6-1 12-5 16-10 1 6-1 12-4 16 6-2 10-8 10-16 0-4-1-8-2-12-2 0-4 0-6 0z"
    fill="url(#glow)"
    opacity="0.8"
  />
  <circle cx="18" cy="16" r="2" fill="#e0f2fe"/>
  <circle cx="28" cy="22" r="1.4" fill="#bae6fd"/>
  <circle cx="46" cy="24" r="1.6" fill="#f8fafc"/>
  <circle cx="16" cy="34" r="1.2" fill="#93c5fd"/>
  <circle cx="34" cy="44" r="1.8" fill="#e0f2fe"/>
  <circle cx="50" cy="46" r="1.1" fill="#7dd3fc"/>
  <circle cx="24" cy="50" r="1.1" fill="#c7d2fe"/>
</svg>
